<svg width="22" height="22" viewBox="0 0 22 22" fill="none" xmlns="http://www.w3.org/2000/svg">
<g id="Union">
<mask id="path-1-outside-1_142_24521" maskUnits="userSpaceOnUse" x="0" y="0" width="22" height="22" fill="black">
<rect fill="white" width="22" height="22"/>
<path fill-rule="evenodd" clip-rule="evenodd" d="M11 2C10.068 2 9.3125 2.75552 9.3125 3.6875V9.3125H3.6875C2.75552 9.3125 2 10.068 2 11C2 11.932 2.75552 12.6875 3.6875 12.6875H9.3125V18.3125C9.3125 19.2445 10.068 20 11 20C11.932 20 12.6875 19.2445 12.6875 18.3125V12.6875H18.3125C19.2445 12.6875 20 11.932 20 11C20 10.068 19.2445 9.3125 18.3125 9.3125H12.6875V3.6875C12.6875 2.75552 11.932 2 11 2Z"/>
</mask>
<path fill-rule="evenodd" clip-rule="evenodd" d="M11 2C10.068 2 9.3125 2.75552 9.3125 3.6875V9.3125H3.6875C2.75552 9.3125 2 10.068 2 11C2 11.932 2.75552 12.6875 3.6875 12.6875H9.3125V18.3125C9.3125 19.2445 10.068 20 11 20C11.932 20 12.6875 19.2445 12.6875 18.3125V12.6875H18.3125C19.2445 12.6875 20 11.932 20 11C20 10.068 19.2445 9.3125 18.3125 9.3125H12.6875V3.6875C12.6875 2.75552 11.932 2 11 2Z" fill="#CCD1D7"/>
<path d="M9.3125 9.3125V10.8125H10.8125V9.3125H9.3125ZM3.6875 9.3125L3.6875 10.8125H3.6875V9.3125ZM9.3125 12.6875H10.8125V11.1875H9.3125V12.6875ZM12.6875 12.6875V11.1875H11.1875V12.6875H12.6875ZM12.6875 9.3125H11.1875V10.8125H12.6875V9.3125ZM10.8125 3.6875C10.8125 3.58395 10.8964 3.5 11 3.5V0.5C9.23959 0.5 7.8125 1.92709 7.8125 3.6875H10.8125ZM10.8125 9.3125V3.6875H7.8125V9.3125H10.8125ZM3.6875 10.8125H9.3125V7.8125H3.6875V10.8125ZM3.5 11C3.5 10.8964 3.58395 10.8125 3.6875 10.8125L3.6875 7.8125C1.92709 7.8125 0.5 9.23959 0.5 11H3.5ZM3.6875 11.1875C3.58395 11.1875 3.5 11.1036 3.5 11H0.5C0.5 12.7604 1.92709 14.1875 3.6875 14.1875V11.1875ZM9.3125 11.1875H3.6875V14.1875H9.3125V11.1875ZM10.8125 18.3125V12.6875H7.8125V18.3125H10.8125ZM11 18.5C10.8964 18.5 10.8125 18.4161 10.8125 18.3125H7.8125C7.8125 20.0729 9.23959 21.5 11 21.5V18.5ZM11.1875 18.3125C11.1875 18.4161 11.1036 18.5 11 18.5V21.5C12.7604 21.5 14.1875 20.0729 14.1875 18.3125H11.1875ZM11.1875 12.6875V18.3125H14.1875V12.6875H11.1875ZM18.3125 11.1875H12.6875V14.1875H18.3125V11.1875ZM18.5 11C18.5 11.1036 18.4161 11.1875 18.3125 11.1875V14.1875C20.0729 14.1875 21.5 12.7604 21.5 11H18.5ZM18.3125 10.8125C18.4161 10.8125 18.5 10.8964 18.5 11H21.5C21.5 9.23959 20.0729 7.8125 18.3125 7.8125V10.8125ZM12.6875 10.8125H18.3125V7.8125H12.6875V10.8125ZM11.1875 3.6875V9.3125H14.1875V3.6875H11.1875ZM11 3.5C11.1036 3.5 11.1875 3.58395 11.1875 3.6875H14.1875C14.1875 1.92709 12.7604 0.5 11 0.5V3.5Z" fill="white" mask="url(#path-1-outside-1_142_24521)"/>
</g>
</svg>
