<svg width="27" height="21" viewBox="0 0 27 21" fill="none" xmlns="http://www.w3.org/2000/svg">
<path fill-rule="evenodd" clip-rule="evenodd" d="M18.4158 5.43614H20.7204C21.3243 5.43613 21.9036 5.67405 22.3309 6.0976C22.7581 6.52114 22.9984 7.09567 22.9989 7.6949V17.8114C22.9984 18.4108 22.7582 18.9855 22.331 19.4093C21.9038 19.8332 21.3245 20.0715 20.7204 20.072H2.2785C1.67435 20.0715 1.09509 19.8332 0.6679 19.4093C0.240706 18.9855 0.000492576 18.4108 0 17.8114V7.6949C0.000493039 7.09567 0.240766 6.52114 0.668014 6.0976C1.09526 5.67405 1.67452 5.43613 2.2785 5.43614H4.58489L6.12869 2.32664C6.17696 2.22887 6.25184 2.14646 6.34487 2.08873C6.4379 2.03101 6.54535 2.00027 6.65507 2H16.3438C16.4534 1.99989 16.5608 2.03026 16.6538 2.08767C16.7469 2.14508 16.8218 2.22723 16.8702 2.32479L18.4158 5.43614ZM11.5 17C13.9853 17 16 14.9853 16 12.5C16 10.0147 13.9853 8 11.5 8C9.01472 8 7 10.0147 7 12.5C7 14.9853 9.01472 17 11.5 17Z" fill="#CCD1D7"/>
<mask id="path-2-outside-1_111_12357" maskUnits="userSpaceOnUse" x="15" y="0" width="12" height="12" fill="black">
<rect fill="white" x="15" width="12" height="12"/>
<path fill-rule="evenodd" clip-rule="evenodd" d="M21 2C20.5858 2 20.25 2.33579 20.25 2.75V5.25H17.75C17.3358 5.25 17 5.58579 17 6C17 6.41421 17.3358 6.75 17.75 6.75H20.25V9.25C20.25 9.66421 20.5858 10 21 10C21.4142 10 21.75 9.66421 21.75 9.25V6.75H24.25C24.6642 6.75 25 6.41421 25 6C25 5.58579 24.6642 5.25 24.25 5.25H21.75V2.75C21.75 2.33579 21.4142 2 21 2Z"/>
</mask>
<path fill-rule="evenodd" clip-rule="evenodd" d="M21 2C20.5858 2 20.25 2.33579 20.25 2.75V5.25H17.75C17.3358 5.25 17 5.58579 17 6C17 6.41421 17.3358 6.75 17.75 6.75H20.25V9.25C20.25 9.66421 20.5858 10 21 10C21.4142 10 21.75 9.66421 21.75 9.25V6.75H24.25C24.6642 6.75 25 6.41421 25 6C25 5.58579 24.6642 5.25 24.25 5.25H21.75V2.75C21.75 2.33579 21.4142 2 21 2Z" fill="#CCD1D7"/>
<path d="M20.25 5.25V6.75H21.75V5.25H20.25ZM20.25 6.75H21.75V5.25H20.25V6.75ZM21.75 6.75V5.25H20.25V6.75H21.75ZM21.75 5.25H20.25V6.75H21.75V5.25ZM21.75 2.75C21.75 3.16421 21.4142 3.5 21 3.5V0.5C19.7574 0.5 18.75 1.50736 18.75 2.75H21.75ZM21.75 5.25V2.75H18.75V5.25H21.75ZM17.75 6.75H20.25V3.75H17.75V6.75ZM18.5 6C18.5 6.41421 18.1642 6.75 17.75 6.75V3.75C16.5074 3.75 15.5 4.75736 15.5 6H18.5ZM17.75 5.25C18.1642 5.25 18.5 5.58579 18.5 6H15.5C15.5 7.24264 16.5074 8.25 17.75 8.25V5.25ZM20.25 5.25H17.75V8.25H20.25V5.25ZM21.75 9.25V6.75H18.75V9.25H21.75ZM21 8.5C21.4142 8.5 21.75 8.83579 21.75 9.25H18.75C18.75 10.4926 19.7574 11.5 21 11.5V8.5ZM20.25 9.25C20.25 8.83579 20.5858 8.5 21 8.5V11.5C22.2426 11.5 23.25 10.4926 23.25 9.25H20.25ZM20.25 6.75V9.25H23.25V6.75H20.25ZM24.25 5.25H21.75V8.25H24.25V5.25ZM23.5 6C23.5 5.58579 23.8358 5.25 24.25 5.25V8.25C25.4926 8.25 26.5 7.24264 26.5 6H23.5ZM24.25 6.75C23.8358 6.75 23.5 6.41421 23.5 6H26.5C26.5 4.75736 25.4926 3.75 24.25 3.75V6.75ZM21.75 6.75H24.25V3.75H21.75V6.75ZM20.25 2.75V5.25H23.25V2.75H20.25ZM21 3.5C20.5858 3.5 20.25 3.16421 20.25 2.75H23.25C23.25 1.50736 22.2426 0.5 21 0.5V3.5Z" fill="white" mask="url(#path-2-outside-1_111_12357)"/>
</svg>
